<mxfile host="app.diagrams.net" modified="2022-11-29T20:38:46.878Z" agent="5.0 (Windows NT 10.0; Win64; x64) AppleWebKit/537.36 (KHTML, like Gecko) Chrome/107.0.0.0 Safari/537.36" etag="k1Cw8psPUocKNOebA3Ij" version="20.6.0" type="github">
  <diagram id="C5RBs43oDa-KdzZeNtuy" name="Page-1">
    <mxGraphModel dx="1020" dy="537" grid="1" gridSize="10" guides="1" tooltips="1" connect="1" arrows="1" fold="1" page="1" pageScale="1" pageWidth="827" pageHeight="1169" math="0" shadow="0">
      <root>
        <mxCell id="WIyWlLk6GJQsqaUBKTNV-0" />
        <mxCell id="WIyWlLk6GJQsqaUBKTNV-1" parent="WIyWlLk6GJQsqaUBKTNV-0" />
        <mxCell id="65AKJLywZ3FnlZ4tgMtX-2" value="" style="edgeStyle=orthogonalEdgeStyle;rounded=0;orthogonalLoop=1;jettySize=auto;html=1;" edge="1" parent="WIyWlLk6GJQsqaUBKTNV-1" source="WIyWlLk6GJQsqaUBKTNV-12">
          <mxGeometry relative="1" as="geometry">
            <mxPoint x="385" y="200" as="targetPoint" />
          </mxGeometry>
        </mxCell>
        <mxCell id="WIyWlLk6GJQsqaUBKTNV-12" value="string[] array = new string[4] { &quot;hello&quot;, &quot;2&quot;, &quot;world&quot;, &quot;;-)&quot; }&lt;br&gt;" style="rounded=1;whiteSpace=wrap;html=1;fontSize=12;glass=0;strokeWidth=1;shadow=0;" parent="WIyWlLk6GJQsqaUBKTNV-1" vertex="1">
          <mxGeometry x="160" y="110" width="450" height="50" as="geometry" />
        </mxCell>
        <mxCell id="65AKJLywZ3FnlZ4tgMtX-46" value="" style="edgeStyle=orthogonalEdgeStyle;rounded=0;orthogonalLoop=1;jettySize=auto;html=1;" edge="1" parent="WIyWlLk6GJQsqaUBKTNV-1" source="65AKJLywZ3FnlZ4tgMtX-0" target="WIyWlLk6GJQsqaUBKTNV-12">
          <mxGeometry relative="1" as="geometry" />
        </mxCell>
        <mxCell id="65AKJLywZ3FnlZ4tgMtX-0" value="start" style="ellipse;whiteSpace=wrap;html=1;" vertex="1" parent="WIyWlLk6GJQsqaUBKTNV-1">
          <mxGeometry x="310.63" y="30" width="150" height="50" as="geometry" />
        </mxCell>
        <mxCell id="65AKJLywZ3FnlZ4tgMtX-14" value="" style="edgeStyle=orthogonalEdgeStyle;rounded=0;orthogonalLoop=1;jettySize=auto;html=1;exitX=0.5;exitY=1;exitDx=0;exitDy=0;" edge="1" parent="WIyWlLk6GJQsqaUBKTNV-1" source="65AKJLywZ3FnlZ4tgMtX-23" target="65AKJLywZ3FnlZ4tgMtX-13">
          <mxGeometry relative="1" as="geometry">
            <mxPoint x="385" y="280" as="sourcePoint" />
          </mxGeometry>
        </mxCell>
        <mxCell id="65AKJLywZ3FnlZ4tgMtX-17" value="" style="edgeStyle=orthogonalEdgeStyle;rounded=0;orthogonalLoop=1;jettySize=auto;html=1;" edge="1" parent="WIyWlLk6GJQsqaUBKTNV-1" source="65AKJLywZ3FnlZ4tgMtX-13" target="65AKJLywZ3FnlZ4tgMtX-16">
          <mxGeometry relative="1" as="geometry" />
        </mxCell>
        <mxCell id="65AKJLywZ3FnlZ4tgMtX-30" value="" style="edgeStyle=orthogonalEdgeStyle;rounded=0;orthogonalLoop=1;jettySize=auto;html=1;" edge="1" parent="WIyWlLk6GJQsqaUBKTNV-1" source="65AKJLywZ3FnlZ4tgMtX-13" target="65AKJLywZ3FnlZ4tgMtX-28">
          <mxGeometry relative="1" as="geometry" />
        </mxCell>
        <mxCell id="65AKJLywZ3FnlZ4tgMtX-13" value="array[i].Length&amp;lt;=3" style="rhombus;whiteSpace=wrap;html=1;rounded=1;glass=0;strokeWidth=1;shadow=0;direction=south;" vertex="1" parent="WIyWlLk6GJQsqaUBKTNV-1">
          <mxGeometry x="322.5" y="415" width="125" height="95" as="geometry" />
        </mxCell>
        <mxCell id="65AKJLywZ3FnlZ4tgMtX-15" value="Yes" style="text;html=1;align=center;verticalAlign=middle;resizable=0;points=[];autosize=1;strokeColor=none;fillColor=none;" vertex="1" parent="WIyWlLk6GJQsqaUBKTNV-1">
          <mxGeometry x="400" y="285" width="40" height="30" as="geometry" />
        </mxCell>
        <mxCell id="65AKJLywZ3FnlZ4tgMtX-26" style="edgeStyle=orthogonalEdgeStyle;rounded=0;orthogonalLoop=1;jettySize=auto;html=1;entryX=0;entryY=0.5;entryDx=0;entryDy=0;" edge="1" parent="WIyWlLk6GJQsqaUBKTNV-1" source="65AKJLywZ3FnlZ4tgMtX-16" target="65AKJLywZ3FnlZ4tgMtX-19">
          <mxGeometry relative="1" as="geometry">
            <Array as="points">
              <mxPoint x="160" y="595" />
              <mxPoint x="160" y="330" />
            </Array>
          </mxGeometry>
        </mxCell>
        <mxCell id="65AKJLywZ3FnlZ4tgMtX-16" value="newArray[j] = array[i]&lt;br&gt;j++&lt;br&gt;i++" style="whiteSpace=wrap;html=1;rounded=1;glass=0;strokeWidth=1;shadow=0;" vertex="1" parent="WIyWlLk6GJQsqaUBKTNV-1">
          <mxGeometry x="291.25" y="560" width="188.75" height="70" as="geometry" />
        </mxCell>
        <mxCell id="65AKJLywZ3FnlZ4tgMtX-18" value="Yes" style="text;html=1;align=center;verticalAlign=middle;resizable=0;points=[];autosize=1;strokeColor=none;fillColor=none;" vertex="1" parent="WIyWlLk6GJQsqaUBKTNV-1">
          <mxGeometry x="410" y="400" width="40" height="30" as="geometry" />
        </mxCell>
        <mxCell id="65AKJLywZ3FnlZ4tgMtX-43" value="" style="edgeStyle=orthogonalEdgeStyle;rounded=0;orthogonalLoop=1;jettySize=auto;html=1;" edge="1" parent="WIyWlLk6GJQsqaUBKTNV-1" source="65AKJLywZ3FnlZ4tgMtX-19" target="65AKJLywZ3FnlZ4tgMtX-42">
          <mxGeometry relative="1" as="geometry" />
        </mxCell>
        <mxCell id="65AKJLywZ3FnlZ4tgMtX-19" value="i &amp;lt; array.Lenght" style="rhombus;whiteSpace=wrap;html=1;rounded=1;glass=0;strokeWidth=1;shadow=0;" vertex="1" parent="WIyWlLk6GJQsqaUBKTNV-1">
          <mxGeometry x="327.5" y="290" width="115" height="80" as="geometry" />
        </mxCell>
        <mxCell id="65AKJLywZ3FnlZ4tgMtX-23" value="i=0&lt;br&gt;j=0&lt;br&gt;string[] newArray = new string[array.Length" style="rounded=1;whiteSpace=wrap;html=1;" vertex="1" parent="WIyWlLk6GJQsqaUBKTNV-1">
          <mxGeometry x="238.75" y="200" width="292.5" height="60" as="geometry" />
        </mxCell>
        <mxCell id="65AKJLywZ3FnlZ4tgMtX-39" style="edgeStyle=orthogonalEdgeStyle;rounded=0;orthogonalLoop=1;jettySize=auto;html=1;exitX=0.5;exitY=0;exitDx=0;exitDy=0;entryX=0;entryY=0.5;entryDx=0;entryDy=0;" edge="1" parent="WIyWlLk6GJQsqaUBKTNV-1" source="65AKJLywZ3FnlZ4tgMtX-28" target="65AKJLywZ3FnlZ4tgMtX-19">
          <mxGeometry relative="1" as="geometry" />
        </mxCell>
        <mxCell id="65AKJLywZ3FnlZ4tgMtX-28" value="i++" style="whiteSpace=wrap;html=1;rounded=1;glass=0;strokeWidth=1;shadow=0;" vertex="1" parent="WIyWlLk6GJQsqaUBKTNV-1">
          <mxGeometry x="190" y="432.5" width="120" height="60" as="geometry" />
        </mxCell>
        <mxCell id="65AKJLywZ3FnlZ4tgMtX-32" value="Yes" style="text;html=1;align=center;verticalAlign=middle;resizable=0;points=[];autosize=1;strokeColor=none;fillColor=none;" vertex="1" parent="WIyWlLk6GJQsqaUBKTNV-1">
          <mxGeometry x="414" y="520" width="40" height="30" as="geometry" />
        </mxCell>
        <mxCell id="65AKJLywZ3FnlZ4tgMtX-33" value="Yes" style="text;html=1;align=center;verticalAlign=middle;resizable=0;points=[];autosize=1;strokeColor=none;fillColor=none;" vertex="1" parent="WIyWlLk6GJQsqaUBKTNV-1">
          <mxGeometry x="110" y="430" width="40" height="30" as="geometry" />
        </mxCell>
        <mxCell id="65AKJLywZ3FnlZ4tgMtX-42" value="Print newArray" style="whiteSpace=wrap;html=1;rounded=1;glass=0;strokeWidth=1;shadow=0;" vertex="1" parent="WIyWlLk6GJQsqaUBKTNV-1">
          <mxGeometry x="520" y="300" width="120" height="60" as="geometry" />
        </mxCell>
        <mxCell id="65AKJLywZ3FnlZ4tgMtX-45" value="No" style="text;html=1;align=center;verticalAlign=middle;resizable=0;points=[];autosize=1;strokeColor=none;fillColor=none;" vertex="1" parent="WIyWlLk6GJQsqaUBKTNV-1">
          <mxGeometry x="260" y="375" width="40" height="30" as="geometry" />
        </mxCell>
      </root>
    </mxGraphModel>
  </diagram>
</mxfile>
